<?xml version="1.0" standalone="no"?>
<!DOCTYPE svg PUBLIC "-//W3C//DTD SVG 20010904//EN"
 "http://www.w3.org/TR/2001/REC-SVG-20010904/DTD/svg10.dtd">
<svg version="1.0" xmlns="http://www.w3.org/2000/svg"
 width="572.000000pt" height="572.000000pt" viewBox="0 0 572.000000 572.000000"
 preserveAspectRatio="xMidYMid meet">
<metadata>
Created by potrace 1.14, written by Peter Selinger 2001-2017
</metadata>
<g transform="translate(0.000000,572.000000) scale(0.100000,-0.100000)"
fill="#000000" stroke="none">
<path d="M3418 5589 c-37 -10 -156 -107 -210 -171 -72 -85 -147 -204 -195
-307 -64 -138 -70 -152 -78 -191 -14 -66 -21 -65 -53 4 -66 141 -143 238 -287
359 -66 55 -140 121 -163 146 -37 39 -43 42 -37 21 12 -43 42 -122 78 -210 53
-127 89 -256 94 -342 l6 -78 -30 0 c-29 0 -32 4 -58 78 -15 42 -47 118 -70
167 -24 50 -52 116 -64 148 -11 31 -33 81 -48 110 -14 28 -41 87 -58 130 l-32
79 -7 -84 c-4 -45 -11 -119 -16 -163 -5 -44 -14 -156 -20 -250 -17 -292 -20
-314 -40 -325 -15 -8 -38 5 -122 69 -57 44 -141 113 -187 154 -141 126 -234
168 -371 166 -64 0 -65 0 -40 -17 79 -53 161 -184 234 -375 25 -66 46 -124 46
-129 0 -6 -13 8 -30 30 -16 23 -75 88 -130 146 -107 110 -100 106 -288 179
-56 21 -74 18 -50 -10 33 -39 68 -112 89 -188 19 -71 22 -108 24 -322 1 -134
0 -243 -3 -243 -2 0 -50 29 -105 64 -201 125 -336 178 -466 180 -102 1 -120
-13 -76 -60 61 -64 272 -432 325 -564 37 -92 40 -85 -39 -82 -128 6 -295 -46
-551 -172 -52 -26 -114 -49 -140 -52 -25 -3 -61 -8 -80 -10 l-35 -6 40 -21
c37 -20 56 -22 255 -23 176 -1 224 -4 265 -19 58 -20 126 -57 145 -79 11 -14
9 -16 -12 -16 -14 0 -78 -16 -144 -35 -177 -53 -247 -66 -374 -72 -105 -5
-120 -3 -168 17 -77 33 -86 15 -21 -44 28 -25 57 -46 64 -46 25 0 197 -144
249 -208 114 -142 213 -218 320 -246 71 -19 75 -22 41 -30 -57 -14 -144 -75
-242 -168 -152 -144 -288 -236 -367 -247 -22 -3 -41 -12 -43 -18 -9 -25 50
-35 177 -30 102 4 149 12 255 41 136 38 237 46 292 25 l28 -11 -40 -20 c-21
-11 -82 -66 -134 -122 -166 -175 -193 -200 -310 -271 -63 -39 -113 -74 -113
-80 4 -27 281 -1 392 37 53 18 330 39 330 25 0 -3 -12 -18 -26 -34 -14 -15
-57 -93 -96 -173 -68 -138 -179 -315 -223 -353 -11 -9 -39 -31 -62 -48 -83
-59 -40 -64 102 -12 44 17 104 42 132 57 29 14 83 33 120 42 38 8 124 42 193
74 125 59 186 81 179 64 -3 -5 -12 -25 -21 -44 -9 -19 -32 -69 -51 -111 -40
-87 -71 -126 -165 -202 -94 -77 -124 -90 -217 -96 -71 -5 -80 -8 -80 -26 0
-48 192 -62 345 -26 47 12 96 21 110 21 24 0 88 22 184 64 27 11 76 40 109 63
33 24 62 41 64 40 1 -2 -1 -18 -6 -35 -5 -17 -12 -100 -16 -184 -8 -178 -19
-258 -45 -307 -15 -31 -132 -147 -172 -173 -10 -6 -10 -8 0 -8 26 0 95 43 139
86 84 84 113 188 113 405 0 102 4 140 23 204 13 43 29 81 36 83 7 2 22 -5 34
-16 32 -29 142 -95 250 -148 50 -26 93 -47 94 -48 5 -4 -103 -202 -133 -246
-41 -58 -185 -197 -255 -244 -70 -47 -194 -87 -289 -92 -51 -2 -67 -1 -50 5
23 8 22 9 -12 10 -26 1 -38 -3 -38 -13 0 -23 133 -35 213 -19 131 27 198 67
340 203 67 63 111 117 155 188 34 54 62 104 62 110 0 6 3 13 7 15 5 3 9 -25 9
-61 2 -50 14 -103 50 -212 47 -141 48 -148 48 -265 0 -66 -4 -132 -8 -147 -20
-68 45 -10 151 132 64 86 91 149 133 312 22 83 40 152 40 154 0 2 5 4 10 4 6
0 10 -7 10 -16 0 -9 17 -53 37 -98 35 -76 37 -87 37 -181 1 -119 -22 -204 -84
-309 -22 -37 -40 -71 -40 -74 0 -10 100 7 132 24 68 35 218 155 272 219 73 86
108 157 137 277 l23 98 61 -58 c34 -31 78 -70 98 -85 35 -26 117 -135 117
-155 0 -5 9 -29 19 -53 11 -24 23 -78 28 -119 9 -81 26 -98 49 -50 7 14 44 90
83 170 93 189 106 263 77 427 -7 40 -10 73 -6 73 18 0 90 -75 151 -156 132
-176 291 -269 479 -281 142 -9 188 27 78 61 -71 22 -135 79 -184 162 -29 49
-29 51 -29 214 0 141 -3 170 -18 198 -10 19 -17 36 -14 38 10 10 198 -187 249
-261 31 -44 80 -103 109 -132 55 -53 156 -113 189 -113 28 0 33 18 8 26 -26 8
-40 24 -64 74 -27 54 -33 92 -49 280 -21 247 -45 370 -89 458 -20 39 -36 73
-36 76 0 2 28 -5 61 -15 34 -11 114 -29 178 -40 103 -19 138 -21 307 -15 219
8 289 17 312 40 15 15 12 16 -48 14 -136 -5 -262 74 -380 237 -67 93 -134 220
-126 240 2 7 31 23 63 36 51 21 71 23 173 20 355 -11 405 -5 550 58 36 16 80
35 99 42 31 11 32 13 15 26 -10 7 -32 13 -49 13 -67 0 -281 110 -383 197 -63
54 -205 151 -241 164 -13 5 -21 12 -17 16 3 3 88 10 188 14 145 6 204 13 283
33 101 26 254 96 307 141 l28 23 -98 0 c-109 -1 -170 13 -297 69 -44 20 -117
48 -162 62 l-83 26 98 70 c150 106 227 142 365 168 65 12 118 27 118 32 -1 6
-36 19 -78 31 -43 11 -112 37 -153 57 -105 50 -161 60 -309 55 -97 -4 -138
-10 -179 -27 -29 -11 -55 -21 -58 -21 -3 0 14 24 39 53 101 119 311 422 380
547 47 87 37 109 -24 53 -59 -53 -145 -116 -196 -142 -100 -50 -403 -122 -403
-95 0 3 17 25 38 49 47 53 94 148 133 269 17 50 40 109 53 131 13 22 33 74 46
115 12 41 35 104 51 139 16 35 29 73 29 85 1 11 7 32 15 46 8 14 14 36 15 49
0 20 -2 22 -16 10 -8 -7 -24 -29 -34 -48 -43 -86 -194 -229 -332 -315 -71 -44
-207 -110 -213 -104 -2 2 7 35 20 73 49 147 60 227 59 435 0 115 -6 222 -14
260 -7 36 -14 79 -15 95 -2 17 -4 32 -5 35 0 3 -11 -14 -23 -37 -66 -127 -116
-199 -267 -385 -28 -34 -181 -138 -203 -138 -5 0 -6 8 -2 18 16 41 44 196 55
300 11 117 1 312 -22 412 -6 25 -10 62 -10 83 0 57 -17 42 -68 -59 -61 -121
-119 -200 -236 -320 -77 -79 -114 -109 -167 -134 -37 -18 -69 -31 -72 -28 -12
11 -57 326 -62 428 -7 145 8 236 53 331 19 40 33 75 32 79 -2 4 -15 3 -30 -1z
m-58 -128 c-38 -120 -43 -223 -19 -399 11 -86 26 -188 34 -227 7 -38 12 -71
11 -72 -1 -2 -45 8 -97 21 -92 23 -187 40 -301 51 -38 4 -58 11 -58 19 0 17
141 301 189 381 19 33 56 87 82 120 49 63 167 180 174 173 2 -2 -5 -32 -15
-67z m-1101 -120 c11 -21 39 -85 62 -142 22 -57 51 -124 64 -149 23 -44 70
-160 85 -211 8 -26 7 -26 -114 -57 -66 -17 -132 -34 -145 -38 l-24 -7 7 164
c5 145 35 479 43 479 1 0 12 -18 22 -39z m346 -109 c44 -37 101 -95 128 -127
53 -66 152 -251 139 -259 -5 -3 -49 -5 -98 -5 -49 1 -106 -2 -127 -6 l-37 -7
0 40 c0 48 -54 266 -82 330 -11 26 -29 69 -39 95 l-19 49 27 -21 c16 -11 64
-51 108 -89z m1351 -88 c16 -100 18 -334 3 -434 -12 -80 -47 -200 -58 -200 -5
0 -19 8 -32 19 -47 36 -193 115 -290 156 -55 23 -102 44 -104 47 -3 2 26 24
63 49 129 84 289 262 367 407 16 28 30 50 32 48 2 -2 11 -44 19 -92z m-2321
-119 c46 -23 116 -74 202 -148 73 -63 155 -129 182 -148 28 -19 51 -37 51 -40
0 -3 -28 -18 -63 -33 -35 -15 -105 -52 -156 -82 -106 -63 -99 -65 -132 36 -12
36 -25 70 -29 75 -4 6 -17 39 -30 75 -39 109 -79 174 -179 294 -15 18 -14 18
34 12 28 -4 82 -22 120 -41z m2803 -212 c15 -149 15 -199 -3 -350 -14 -121
-61 -292 -91 -330 -13 -17 -16 -15 -50 22 -86 96 -165 173 -241 237 -46 39
-83 73 -83 77 0 4 24 18 53 33 113 55 285 231 353 360 19 38 38 68 42 68 4 0
13 -53 20 -117z m-3172 96 c3 -6 24 -19 44 -28 49 -22 286 -268 340 -353 l40
-63 -22 -15 c-44 -30 -154 -128 -228 -204 l-75 -78 -7 34 c-4 18 -5 39 -3 46
3 7 -2 38 -10 69 -9 35 -15 104 -15 178 0 143 -24 257 -75 358 -31 60 -32 67
-15 67 10 0 22 -5 26 -11z m1826 -124 c204 -31 359 -80 553 -175 439 -215 773
-582 958 -1055 166 -424 176 -946 27 -1380 -94 -272 -250 -533 -434 -722 -188
-194 -344 -310 -559 -413 -294 -142 -585 -202 -901 -186 -412 21 -763 157
-1096 423 -408 326 -670 821 -719 1354 -12 122 -6 388 9 486 93 584 399 1070
870 1380 238 157 539 267 810 296 100 11 388 6 482 -8z m1808 -354 c-6 -12
-27 -67 -46 -123 -20 -56 -46 -122 -58 -147 -13 -26 -38 -86 -56 -136 -55
-152 -132 -285 -165 -285 -6 0 -19 17 -29 38 -27 55 -113 197 -152 248 -19 24
-34 48 -34 53 0 5 17 15 38 22 122 39 352 188 441 285 34 37 61 72 62 78 0 7
2 7 5 -1 3 -7 0 -21 -6 -32z m-4045 -86 c126 -39 455 -213 455 -242 0 -6 -5
-15 -11 -19 -17 -10 -148 -212 -185 -286 -19 -38 -38 -68 -43 -68 -5 0 -14 15
-22 33 -7 17 -23 45 -36 60 -13 16 -23 34 -23 40 0 7 -25 57 -56 112 -31 55
-57 109 -58 120 -3 25 -111 177 -160 225 -19 19 -36 39 -36 44 0 12 113 -1
175 -19z m4289 -532 c-127 -189 -374 -519 -402 -537 -5 -3 -19 32 -31 77 -13
45 -41 129 -63 187 -55 148 -53 138 -26 133 33 -6 187 29 291 67 48 18 127 56
175 85 48 29 89 51 91 49 2 -1 -14 -29 -35 -61z m-4102 -148 c3 -3 -10 -40
-28 -83 -18 -42 -46 -121 -61 -174 -15 -54 -30 -98 -33 -98 -3 0 -28 19 -55
41 -69 58 -134 85 -241 102 -69 12 -112 13 -178 5 -100 -11 -193 -7 -161 6 11
4 72 28 135 54 63 25 146 61 184 79 103 52 193 72 322 72 61 1 113 -1 116 -4z
m4192 -359 c61 -19 225 -89 226 -97 0 -4 -18 -9 -40 -13 -99 -16 -241 -87
-350 -175 -53 -44 -234 -131 -271 -131 -14 0 -19 11 -23 58 -9 88 -27 223 -33
254 -5 26 -1 30 60 58 35 17 93 37 128 45 85 18 244 19 303 1z m-4351 -40 c32
-7 32 -12 11 -126 -8 -47 -18 -167 -21 -268 l-6 -183 -41 6 c-141 22 -216 73
-366 250 -70 82 -194 180 -260 205 -47 18 -64 34 -25 23 89 -23 304 5 505 66
133 41 136 41 203 27z m4172 -377 c22 -6 78 -28 125 -49 79 -35 262 -94 320
-103 21 -3 12 -10 -50 -39 -107 -51 -252 -79 -428 -83 -93 -2 -162 -9 -198
-20 -31 -9 -57 -15 -59 -13 -1 2 1 35 6 73 4 39 8 97 8 131 l1 61 83 26 c91
29 132 32 192 16z m-4162 -356 c9 -65 25 -151 35 -191 l19 -74 -26 5 c-14 3
-53 10 -85 17 -70 14 -102 10 -282 -35 -74 -19 -174 -37 -222 -40 l-86 -6 81
49 c105 63 148 97 253 198 86 82 165 139 243 174 23 10 45 19 48 19 3 1 13
-52 22 -116z m3998 -34 c37 -21 141 -97 203 -149 61 -51 239 -152 304 -171 23
-7 42 -16 42 -20 0 -9 -93 -45 -175 -67 -72 -19 -264 -21 -347 -3 -63 14 -141
4 -236 -29 -36 -13 -52 -15 -49 -7 28 75 79 254 97 342 12 61 23 115 25 121 4
14 102 2 136 -17z m-3900 -366 c14 -44 45 -119 67 -167 l41 -86 -32 -17 c-23
-12 -52 -17 -102 -16 -92 2 -225 -14 -300 -36 -69 -21 -274 -56 -282 -48 -2 3
15 18 39 33 23 15 66 42 94 60 28 17 109 93 180 168 101 107 142 143 188 167
33 16 64 28 70 26 5 -2 22 -39 37 -84z m3740 -394 c73 -106 127 -157 211 -201
l63 -32 -80 -8 c-86 -8 -240 -3 -345 13 -78 12 -220 50 -220 58 0 4 34 58 76
121 42 63 94 152 116 198 l40 84 40 -73 c21 -39 66 -111 99 -160z m-3566 26
c37 -66 175 -257 194 -269 21 -14 10 -23 -41 -35 -29 -6 -105 -36 -168 -66
-63 -29 -148 -63 -188 -74 -40 -11 -113 -38 -161 -61 -48 -22 -94 -40 -101
-40 -8 0 2 17 22 38 47 50 150 206 172 262 10 25 22 50 27 56 5 6 25 45 45 85
35 73 120 169 149 169 7 0 30 -29 50 -65z m3178 -342 c44 -94 61 -190 81 -443
9 -107 21 -204 30 -229 9 -24 14 -46 12 -49 -10 -10 -130 116 -184 193 -64 92
-221 254 -272 280 l-35 18 60 50 c33 28 105 97 160 153 55 56 103 103 106 103
3 1 22 -34 42 -76z m-2730 -177 c20 -16 37 -32 37 -37 0 -40 -195 -178 -289
-205 -163 -47 -302 -74 -376 -73 l-70 0 42 14 c91 28 223 126 287 214 21 28
55 92 77 143 21 50 49 102 61 115 l21 23 86 -83 c47 -45 103 -95 124 -111z
m2368 -148 l34 -63 0 -160 c0 -158 0 -161 29 -212 38 -69 106 -139 159 -164
l42 -19 -60 4 c-81 5 -207 49 -276 96 -68 46 -144 124 -206 211 -26 37 -73 85
-105 109 -32 24 -57 44 -55 46 2 2 57 30 123 63 65 33 151 80 189 105 39 25
75 46 81 46 6 0 26 -28 45 -62z m-1749 -192 c58 -19 132 -40 166 -47 44 -9 62
-18 62 -29 0 -34 -80 -320 -100 -361 -34 -67 -130 -209 -142 -209 -6 0 -8 13
-4 36 11 53 -11 174 -56 314 -27 83 -42 151 -45 202 -5 68 0 128 11 128 2 0
51 -15 108 -34z m1294 -76 c4 -25 10 -54 15 -66 4 -12 1 -66 -7 -120 -13 -88
-22 -113 -82 -232 -66 -131 -67 -132 -75 -100 -39 149 -101 258 -182 318 -55
41 -145 133 -163 167 -11 20 -9 22 31 28 107 16 253 48 334 74 l88 27 17 -25
c10 -14 20 -46 24 -71z m-733 -16 l187 -7 0 -56 c-1 -117 -59 -272 -135 -359
-97 -111 -317 -273 -340 -250 -4 4 7 27 24 51 40 58 81 183 88 267 7 84 -7
146 -63 273 l-43 99 47 -6 c26 -3 131 -8 235 -12z"/>
<path d="M2553 4380 c53 -9 114 -41 135 -71 7 -10 17 -19 23 -19 5 0 -1 12
-14 26 -29 35 -114 74 -157 73 -31 -1 -30 -2 13 -9z"/>
<path d="M2448 4363 c6 -2 18 -2 25 0 6 3 1 5 -13 5 -14 0 -19 -2 -12 -5z"/>
<path d="M2309 4314 c-8 -10 -23 -14 -43 -10 -17 2 -49 1 -71 -3 -35 -7 -30
-8 32 -8 58 0 76 3 89 18 10 11 15 19 12 19 -3 0 -11 -7 -19 -16z"/>
<path d="M2108 4283 c7 -3 16 -2 19 1 4 3 -2 6 -13 5 -11 0 -14 -3 -6 -6z"/>
<path d="M1975 4251 c-152 -55 -190 -70 -173 -71 10 0 41 10 70 21 29 12 89
34 133 50 44 15 73 28 65 28 -8 0 -51 -12 -95 -28z"/>
<path d="M2760 4250 c6 -11 13 -20 16 -20 2 0 0 9 -6 20 -6 11 -13 20 -16 20
-2 0 0 -9 6 -20z"/>
<path d="M2509 4223 c-20 -2 -44 -12 -54 -23 -15 -17 -20 -17 -50 -4 -48 20
-146 17 -239 -6 -80 -20 -282 -102 -314 -127 -20 -16 -6 -10 148 57 162 71
303 92 406 60 38 -11 44 -11 72 10 22 16 45 23 85 24 30 0 50 4 43 8 -11 8
-31 8 -97 1z"/>
<path d="M3593 4166 c27 -7 62 -27 80 -44 18 -17 51 -35 73 -41 97 -26 211
-147 260 -276 13 -37 52 -110 85 -163 60 -94 104 -154 61 -81 -12 20 -22 42
-22 48 0 6 -26 67 -59 134 -32 67 -61 130 -64 140 -15 43 -74 118 -104 132
-18 9 -45 26 -60 39 -15 13 -46 32 -68 44 -22 11 -67 34 -99 51 -36 19 -73 31
-95 30 -36 0 -36 0 12 -13z"/>
<path d="M3435 4100 c-15 -6 -4 -9 40 -9 44 -1 76 -9 121 -30 34 -16 65 -34
68 -40 4 -6 40 -35 80 -66 41 -30 81 -66 89 -78 9 -13 32 -39 52 -58 20 -19
55 -62 77 -97 23 -34 43 -60 45 -58 9 8 -69 120 -131 188 -33 38 -86 85 -116
105 -30 21 -73 54 -96 75 -59 55 -180 91 -229 68z"/>
<path d="M3023 4079 c-18 -5 -35 -13 -38 -18 -3 -5 11 -5 31 1 21 5 51 8 67 5
27 -4 28 -3 12 10 -21 15 -27 15 -72 2z"/>
<path d="M1786 4035 c-25 -19 -9 -19 24 0 14 8 19 14 10 14 -8 0 -24 -6 -34
-14z"/>
<path d="M2232 4030 c-7 -12 -23 -16 -61 -14 -56 1 -60 -2 -33 -23 18 -15 6
-14 -91 3 -25 4 -38 0 -60 -18 -15 -13 -27 -29 -27 -36 0 -7 -9 -12 -20 -12
-27 0 -70 -21 -64 -31 3 -5 -3 -9 -13 -9 -28 0 -85 -46 -105 -83 -15 -30 -15
-32 0 -38 13 -5 10 -10 -16 -23 -44 -23 -36 -31 11 -11 20 8 47 15 61 15 27 0
43 16 24 23 -23 8 5 21 55 26 4 1 7 8 7 16 0 8 8 15 17 15 9 0 27 9 39 21 15
14 47 25 93 32 39 6 71 15 71 19 0 4 11 8 24 8 14 0 27 4 31 9 3 6 33 8 66 5
42 -3 58 -1 54 6 -5 8 12 10 54 6 34 -3 61 -3 61 -1 0 16 -75 113 -81 104 -4
-7 -9 -8 -13 -1 -10 16 -72 10 -84 -8z"/>
<path d="M2385 4029 c15 -51 44 -109 54 -109 19 0 18 88 -1 105 -8 7 -9 5 -5
-7 4 -10 3 -27 -1 -39 -7 -18 -10 -16 -20 20 -7 22 -17 43 -23 47 -8 4 -9 -1
-4 -17z"/>
<path d="M3545 3900 c-23 -11 -48 -33 -58 -49 -23 -39 -21 -48 4 -25 11 10 20
14 19 9 -6 -28 0 -36 19 -25 26 13 34 13 25 -2 -5 -8 -2 -9 9 -5 10 3 17 2 17
-3 0 -6 12 -10 26 -10 14 0 23 -4 20 -9 -7 -11 37 -41 61 -41 17 -1 17 -1 1
-11 -22 -12 -23 -29 -3 -29 9 0 12 -6 8 -16 -4 -10 1 -17 16 -21 11 -3 21 -9
21 -14 0 -5 7 -9 16 -9 10 0 14 -6 10 -15 -3 -10 3 -17 19 -21 14 -3 25 -12
25 -19 0 -7 7 -15 15 -19 8 -3 15 -11 15 -17 0 -27 111 -101 128 -85 3 3 -3
16 -14 27 l-19 22 28 -7 c36 -9 28 7 -13 24 -29 12 -41 30 -19 30 6 0 3 7 -5
16 -9 8 -16 19 -16 24 0 4 -13 13 -30 20 -33 14 -40 30 -12 30 13 1 12 4 -7
14 -17 10 -20 15 -10 18 9 4 4 8 -13 13 -16 4 -25 11 -22 16 3 5 -9 12 -26 16
-19 3 -27 9 -20 13 7 5 3 9 -12 13 -22 6 -22 7 -3 21 19 14 19 15 2 22 -10 3
-16 13 -13 20 3 8 -1 14 -9 14 -8 0 -15 5 -15 10 0 6 -12 10 -27 10 -27 1 -27
1 -9 15 17 13 18 15 3 15 -9 0 -17 5 -17 10 0 6 -7 10 -15 10 -8 0 -15 5 -15
10 0 16 -42 11 -85 -10z"/>
<path d="M3470 3892 c-12 -10 -21 -25 -19 -34 3 -11 10 -5 26 18 25 39 24 41
-7 16z"/>
<path d="M1744 3715 c-18 -14 -18 -14 4 -8 12 3 22 9 22 14 0 12 -3 11 -26 -6z"/>
<path d="M2189 3627 c-55 -18 -122 -49 -155 -72 -64 -44 -194 -162 -194 -176
0 -5 33 15 73 45 39 30 122 79 183 109 l111 56 31 -32 c16 -18 33 -42 37 -55
3 -12 17 -42 31 -65 18 -32 24 -57 24 -107 0 -46 3 -61 10 -50 26 40 -1 239
-40 292 -11 15 -20 29 -20 31 0 3 37 11 82 18 78 13 80 14 52 26 -49 21 -123
14 -225 -20z"/>
<path d="M2546 3575 c4 -11 11 -45 16 -75 4 -30 19 -102 33 -160 l25 -105 -5
91 c-4 90 -31 196 -61 244 -10 17 -13 18 -8 5z"/>
<path d="M4171 3515 c1 -19 18 -51 18 -35 0 8 -4 22 -9 30 -5 8 -9 11 -9 5z"/>
<path d="M4060 3505 c0 -5 5 -17 10 -25 5 -8 10 -10 10 -5 0 6 -5 17 -10 25
-5 8 -10 11 -10 5z"/>
<path d="M3109 3443 c-41 -35 -123 -121 -155 -164 -30 -41 -105 -159 -100
-159 2 0 54 63 116 141 62 77 131 156 153 175 23 19 36 34 30 34 -7 0 -26 -12
-44 -27z"/>
<path d="M3927 3428 c18 -18 36 -28 40 -24 9 9 -42 56 -60 56 -6 0 3 -14 20
-32z"/>
<path d="M3503 3423 c15 -16 27 -32 27 -35 0 -3 -15 -9 -34 -12 -47 -9 -149
-78 -189 -129 -48 -60 -99 -156 -93 -174 3 -8 10 -12 15 -9 5 3 19 -3 32 -13
13 -10 55 -33 92 -50 60 -28 78 -32 165 -33 85 -1 99 -3 115 -22 l18 -21 -10
22 c-6 12 -10 26 -9 31 5 14 -124 132 -162 149 -23 11 -63 16 -117 16 l-82 0
39 57 c52 76 130 145 188 164 44 15 48 15 61 -1 21 -28 71 -136 71 -154 0 -9
7 -30 15 -45 8 -16 15 -38 16 -49 1 -11 5 7 10 40 18 125 -63 268 -166 291
l-30 7 28 -30z m-163 -343 c0 -22 -12 -25 -41 -9 -25 13 -16 29 17 29 17 0 24
-5 24 -20z m57 -43 c-6 -19 -26 -18 -36 2 -6 11 -8 27 -4 37 6 15 8 15 25 -6
10 -13 17 -28 15 -33z m87 44 c10 -16 -5 -41 -24 -41 -23 0 -34 16 -26 35 6
16 42 20 50 6z m73 -43 c46 -44 43 -58 -11 -58 -24 0 -51 3 -60 6 -14 5 -14 8
-1 27 8 12 15 29 15 39 0 27 20 22 57 -14z"/>
<path d="M2034 3386 c-61 -14 -201 -69 -219 -87 -5 -5 14 -9 53 -9 33 0 71 -4
84 -9 82 -34 175 -53 256 -53 48 0 93 -5 100 -10 11 -10 -16 54 -46 109 -31
57 -127 81 -228 59z m4 -58 c-5 -15 -58 -24 -58 -9 0 9 20 17 48 20 8 0 12 -5
10 -11z m139 -14 c7 -18 -17 -38 -31 -24 -11 11 -1 40 14 40 6 0 13 -7 17 -16z
m-87 -15 c13 -24 8 -34 -15 -26 -16 7 -21 47 -5 47 5 0 14 -9 20 -21z m166
-16 l29 -28 -44 -3 c-23 -2 -45 -1 -47 1 -6 6 17 57 26 57 4 0 20 -12 36 -27z"/>
<path d="M1860 3214 c0 -3 7 -21 16 -40 38 -79 239 -119 349 -69 l30 13 -47 1
c-26 1 -67 6 -90 11 -24 6 -72 17 -108 25 -36 9 -82 27 -102 40 -39 26 -48 29
-48 19z"/>
<path d="M2485 3016 c-47 -15 -101 -42 -109 -55 -3 -4 12 0 32 11 21 10 72 25
113 34 40 8 76 17 78 20 9 9 -76 2 -114 -10z"/>
<path d="M2205 2965 c-38 -25 -71 -47 -73 -49 -2 -2 -8 -36 -14 -76 -13 -90
-1 -136 48 -180 42 -36 57 -35 64 5 l5 29 32 -39 c18 -21 44 -62 57 -91 14
-29 30 -55 36 -59 5 -3 17 -22 24 -40 18 -43 66 -69 109 -59 18 4 26 9 20 11
-27 9 -11 18 35 20 31 1 73 14 122 37 41 20 96 39 122 42 53 7 72 22 58 44
-16 27 -92 15 -189 -29 -103 -46 -152 -51 -209 -21 -59 31 -89 62 -96 100 -8
44 -60 102 -106 120 -62 24 -73 39 -67 93 8 61 51 141 91 167 18 11 24 20 16
20 -9 0 -47 -20 -85 -45z m220 -505 c3 -5 2 -10 -4 -10 -5 0 -13 5 -16 10 -3
6 -2 10 4 10 5 0 13 -4 16 -10z"/>
<path d="M3195 2978 c19 -69 62 -99 163 -118 67 -12 143 -2 190 24 21 11 18
13 -33 14 -111 3 -214 28 -250 62 -11 10 -33 23 -48 29 -27 10 -28 10 -22 -11z"/>
<path d="M2585 2951 c44 -5 94 -12 110 -15 26 -6 27 -6 11 5 -10 6 -60 13
-110 15 l-91 3 80 -8z"/>
<path d="M2029 2902 c5 -34 6 -35 9 -8 2 16 0 32 -5 37 -5 5 -7 -7 -4 -29z"/>
<path d="M2548 2933 c7 -3 16 -2 19 1 4 3 -2 6 -13 5 -11 0 -14 -3 -6 -6z"/>
<path d="M2630 2912 c8 -5 26 -13 40 -16 17 -5 20 -4 10 2 -8 5 -26 13 -40 16
-17 5 -20 4 -10 -2z"/>
<path d="M2900 2910 c0 -3 9 -29 21 -59 11 -30 23 -79 27 -109 8 -62 32 -85
32 -31 l0 32 25 -23 c21 -19 25 -33 25 -77 0 -100 -40 -143 -132 -143 -84 0
-87 -19 -8 -47 63 -23 145 19 180 92 25 51 25 117 1 170 -21 47 -37 62 -71 67
-18 2 -31 15 -45 43 -19 40 -55 94 -55 85z"/>
<path d="M2701 2886 c2 -2 15 -9 29 -15 24 -11 24 -11 6 3 -16 13 -49 24 -35
12z"/>
<path d="M2013 2840 c-30 -46 -65 -54 -283 -58 -185 -4 -212 -7 -280 -29 -93
-30 -191 -94 -225 -145 -32 -49 -32 -62 1 -21 14 18 62 55 107 83 75 46 86 50
145 50 71 0 94 -9 137 -55 17 -17 37 -36 45 -41 30 -18 81 -104 171 -289 136
-275 195 -335 406 -412 87 -32 109 -36 193 -36 56 0 123 7 165 18 81 20 219
82 327 148 96 58 164 86 313 130 199 58 265 71 350 71 89 -1 107 -8 167 -62
73 -66 106 -130 120 -232 17 -131 32 -114 24 28 -9 140 -26 178 -114 248 -77
60 -137 87 -296 133 -139 40 -184 61 -226 106 -21 22 -25 38 -28 99 -4 67 -2
74 24 106 l28 33 -46 -34 c-60 -43 -77 -89 -60 -156 24 -89 92 -143 246 -193
l69 -23 -214 -55 -214 -56 -230 0 -230 -1 -130 43 c-129 43 -242 102 -350 182
-48 35 -176 124 -309 213 -32 21 -81 49 -109 62 l-52 22 121 5 c109 4 125 7
167 31 46 27 91 79 85 97 -2 6 -9 1 -15 -10z m72 -456 c83 -56 175 -113 205
-127 166 -78 346 -126 502 -134 59 -3 105 -10 102 -14 -6 -11 -194 -69 -222
-69 -27 0 -52 -10 -52 -21 0 -5 32 -9 71 -9 41 0 68 -4 64 -9 -11 -19 -168
-72 -245 -83 -99 -14 -184 -1 -293 43 -67 27 -89 44 -157 112 -51 52 -92 105
-116 150 -36 69 -36 70 -12 64 13 -4 49 -9 80 -13 51 -6 58 -10 85 -48 18 -25
50 -52 84 -69 l54 -29 -62 59 c-34 32 -69 72 -77 89 -9 19 -28 36 -45 42 -18
6 -41 28 -57 54 -15 24 -40 62 -56 86 -16 24 -23 40 -16 36 7 -4 81 -53 163
-110z"/>
<path d="M2250 2785 c0 -2 21 -26 46 -52 39 -40 45 -44 39 -23 -10 36 -85 102
-85 75z"/>
<path d="M1857 2049 c50 -151 65 -179 132 -242 99 -93 339 -178 413 -147 13 5
65 25 116 45 51 19 101 43 111 53 11 9 27 24 37 31 36 30 -7 22 -63 -12 -91
-54 -150 -70 -251 -65 -99 4 -189 35 -282 97 -58 39 -136 135 -171 211 -11 25
-30 67 -41 93 -43 96 -44 64 -1 -64z"/>
<path d="M1945 1430 c-13 -90 51 -208 158 -286 93 -69 126 -82 251 -104 131
-22 204 -16 296 26 80 37 115 67 149 131 l30 58 -32 -36 c-66 -74 -222 -139
-335 -139 -68 0 -194 26 -246 51 -83 39 -152 103 -184 171 -16 35 -40 88 -54
118 l-26 55 -7 -45z"/>
<path d="M2239 1319 c-14 -27 -4 -81 19 -102 51 -46 207 -65 262 -31 16 10 18
13 5 8 -11 -4 -55 -9 -98 -12 -72 -4 -81 -2 -118 24 -50 34 -63 57 -56 100 7
39 2 43 -14 13z"/>
<path d="M2397 1323 c-4 -3 -7 -17 -7 -30 0 -28 42 -49 68 -33 14 8 13 9 -9
10 -31 0 -54 23 -45 45 6 16 3 19 -7 8z"/>
<path d="M2569 1223 l-24 -28 28 24 c25 23 32 31 24 31 -2 0 -14 -12 -28 -27z"/>
</g>
</svg>
